# AST/ASF file generated using VICON BodyLanguage
# -----------------------------------------------
:version 1.10
:name VICON
:units
  mass 1.0
  length 0.45
  angle deg
:documentation
   .ast/.asf automatically generated from VICON data using
   VICON BodyBuilder and BodyLanguage model FoxedUp or BRILLIANT.MOD
:root
   order TX TY TZ RX RY RZ
   axis XYZ
   position 0 0 0  
   orientation 0 0 0 
:bonedata
  begin
     id 1 
     name lhipjoint
     direction 0.682418 -0.694059 0.22932 
     length 2.25561 
     axis 0 0 0  XYZ
  end
  begin
     id 2 
     name lfemur
     direction 0.34202 -0.939693 0  
     length 6.96448  
     axis 0 0 20  XYZ
    dof rx ry rz
    limits (-160.0 20.0)
           (-70.0 70.0)
           (-60.0 70.0)
  end
  begin
     id 3 
     name ltibia
     direction 0.34202 -0.939693 0   
     length 6.88553   
     axis 0 0 20   XYZ
    dof rx
    limits (-10.0 170.0)
  end
  begin
     id 4 
     name lfoot
     direction 0.0723587 -0.198804 0.977364   
     length 1.88518   
     axis -90 7.62852e-016 20   XYZ
    dof rx rz
    limits (-45.0 90.0)
           (-70.0 20.0)
  end
  begin
     id 5 
     name ltoes
     direction 1.53558e-011 -4.21962e-011 1   
     length 0.952124   
     axis -90 7.62852e-016 20   XYZ
    dof rx
    limits (-90.0 20.0)
  end
  begin
     id 6 
     name rhipjoint
     direction -0.657603 -0.71533 0.236348   
     length 2.18854  
     axis 0 0 0  XYZ 
  end
  begin
     id 7 
     name rfemur
     direction -0.34202 -0.939693 0   
     length 6.86686   
     axis 0 0 -20   XYZ
    dof rx ry rz
    limits (-160.0 20.0)
           (-70.0 70.0)
           (-70.0 60.0)
  end
  begin
     id 8 
     name rtibia
     direction -0.34202 -0.939693 0   
     length 6.59503   
     axis 0 0 -20   XYZ
    dof rx
    limits (-10.0 170.0)
 end
 begin
     id 9 
     name rfoot
     direction -0.101977 -0.280179 0.954516   
     length 1.93723  
     axis -90 -7.62852e-016 -20   XYZ
    dof rx rz
    limits (-45.0 90.0)
           (-20.0 70.0)
  end
  begin
     id 10 
     name rtoes
     direction -1.53564e-011 -4.21897e-011 1   
     length 0.970315   
     axis -90 -7.62852e-016 -20   XYZ
    dof rx
    limits (-90.0 20.0)
  end
  begin
     id 11 
     name lowerback
     direction -0.0339559 0.999421 -0.00235966   
     length 1.88543   
     axis 0 0 0   XYZ
    dof rx ry rz
    limits (-20.0 45.0)
           (-30.0 30.0)
           (-30.0 30.0)
  end
  begin
     id 12 
     name upperback
     direction 0.00401003 0.999739 0.0224689   
     length 1.8856   
     axis 0 0 0   XYZ
    dof rx ry rz
    limits (-20.0 45.0)
           (-30.0 30.0)
           (-30.0 30.0)
  end
  begin
     id 13 
     name thorax
     direction 0.0198619 0.999546 0.0226536   
     length 1.88352   
     axis 0 0 0   XYZ
    dof rx ry rz
    limits (-20.0 45.0)
           (-30.0 30.0)
           (-30.0 30.0)
  end
  begin
     id 14 
     name lowerneck
     direction -0.0461848 0.998632 0.0245198   
     length 1.34895   
     axis 0 0 0   XYZ
    dof rx ry rz
    limits (-20.0 45.0)
           (-30.0 30.0)
           (-30.0 30.0)
  end
  begin
     id 15 
     name upperneck
     direction -0.0180627 0.994724 -0.100984   
     length 1.35214   
     axis 0 0 0   XYZ
    dof rx ry rz
    limits (-20.0 45.0)
           (-30.0 30.0)
           (-30.0 30.0)
  end
  begin
     id 16
     name head
     direction -0.00374772 0.999293 -0.037403  
     length 1.3568  
     axis 0 0 0   XYZ
    dof rx ry rz
    limits (-20.0 45.0)
           (-30.0 30.0)
           (-30.0 30.0)
  end
  begin
     id 17 
     name lclavicle
     direction 0.971773 0.191119 0.138311  
     length 2.84954  
     axis 0 0 0   XYZ
    dof ry rz
    limits (-20.0 10.0)
           (0.0 20.0)
  end
  begin
     id 18 
     name lhumerus
     direction 1 -4.4897e-011 -2.43761e-027   
     length 4.40919   
     axis 180 -30 -90   XYZ
    dof rx ry rz
    limits (-60.0 90.0)
           (-90.0 90.0)
           (-90.0 90.0)
  end
  begin
     id 19
     name lradius
     direction 1 -4.4896e-011 -9.1621e-027   
     length 3.03857   
     axis 180 -30 -90   XYZ
    dof rx
    limits (-10.0 170.0)
  end
  begin
     id 20
     name lwrist
     direction 1 -4.4896e-011 -1.41363e-026   
     length 1.51928   
     axis 1.07133e-014 90 90   XYZ
    dof ry
    limits (-180.0 0.0)
 end
  begin
     id 21 
     name lhand
     direction 1 -4.48978e-011 -2.82725e-026   
     length 0.523208   
     axis 1.80403e-014 90 90   XYZ
    dof rx rz
    limits (-90.0 90.0)
           (-45.0 45.0)
  end
  begin
     id 22 
     name lfingers
     direction 1 -4.48977e-011 -5.6545e-026   
     length 0.421824   
     axis 3.60806e-014 90 90   XYZ
    dof rx
    limits (0.0 90.0)
  end
  begin
     id 23
     name lthumb
     direction 0.707107 -6.34962e-011 0.707107   
     length 0.605657   
     axis -90 45 2.85299e-015   XYZ
    dof rx rz
    limits (-45.0 45.0)
           (-45.0 45.0)
  end
  begin
     id 24 
     name rclavicle
     direction -0.957247 0.24311 0.156766   
     length 3.12406  
     axis 0 0 0   XYZ 
    dof ry rz
    limits (-10.0 20.0)
           (-20.0 0.0)
  end
  begin
     id 25 
     name rhumerus
     direction -1 -4.48964e-011 -1.70632e-027  
     length 4.61969   
     axis 180 30 90   XYZ
    dof rx ry rz
    limits (-90.0 60.0)
           (-90.0 90.0)
           (-90.0 90.0)
  end
  begin
     id 26 
     name rradius
     direction -1 -4.48966e-011 -6.60395e-027   
     length 3.09382   
     axis 180 30 90   XYZ
    dof rx
    limits (-10.0 170.0)
  end
  begin
     id 27 
     name rwrist
     direction -1 -4.48963e-011 -1.41363e-026   
     length 1.54691   
     axis 1.07133e-014 -90 -90   XYZ
    dof ry
    limits (-180.0 0.0)
  end
  begin
     id 28
     name rhand
     direction -1 -4.49013e-011 -2.82725e-026   
     length 0.500896   
     axis 1.80403e-014 -90 -90   XYZ
    dof rx rz
    limits (-90.0 90.0)
           (-45.0 45.0)
  end
  begin
     id 29
     name rfingers
     direction -1 -4.48902e-011 -5.6545e-026   
     length 0.403835   
     axis 3.60806e-014 -90 -90   XYZ
    dof rx
    limits (0.0 90.0)
  end
  begin
     id 30
     name rthumb
     direction -0.707107 -6.34953e-011 0.707107   
     length 0.579829   
     axis -90 -45 -2.85299e-015   XYZ
    dof rx rz
    limits (-45.0 45.0)
           (-45.0 45.0)
  end
:hierarchy
  begin
    root lhipjoint rhipjoint lowerback
    lhipjoint lfemur
    lfemur ltibia
    ltibia lfoot
    lfoot ltoes
    rhipjoint rfemur
    rfemur rtibia
    rtibia rfoot
    rfoot rtoes
    lowerback upperback
    upperback thorax
    thorax lowerneck lclavicle rclavicle
    lowerneck upperneck
    upperneck head
    lclavicle lhumerus
    lhumerus lradius
    lradius lwrist
    lwrist lhand lthumb
    lhand lfingers
    rclavicle rhumerus
    rhumerus rradius
    rradius rwrist
    rwrist rhand rthumb
    rhand rfingers
  end

#!OML:ASF E:\madness\Project 1\Capture day 1\Session 1\Female1.ASF
:FULLY-SPECIFIED
:DEGREES
339
root 10.0787 15.3103 -1.41065 161.114 -87.3645 -153.122
lowerback 12.0445 0.216411 -3.49996
upperback 3.63895 -0.266002 0.161827
thorax -2.92532 -0.190346 2.18333
lowerneck -0.625983 3.78282 1.48503
upperneck 12.1766 5.43011 -6.26575
head 4.38949 2.36308 -2.17388
rclavicle 1.19271e-015 9.54166e-015
rhumerus -20.4199 -20.3912 -23.5657
rradius 138.238
rwrist -7.49734
rhand -28.8755 -35.7632
rfingers 7.12502
rthumb -2.23146 -65.7313
lclavicle 1.19271e-015 9.54166e-015
lhumerus -11.8225 -3.38216 47.7251
lradius 145.419
lwrist -25.6521
lhand -50.9267 -76.7606
lfingers 7.12502
lthumb -23.4783 -48.1732
rfemur -20.5575 1.12422 18.4781
rtibia 43.5731
rfoot -28.8177 -10.7766
rtoes -4.62089
lfemur -38.7149 -8.07279 -6.32932
ltibia 43.6362
lfoot -7.23207 15.9048
ltoes -6.47433
340
root 10.0816 15.3199 -1.44137 166.618 -87.2205 -158.692
lowerback 11.6277 0.10294 -3.66437
upperback 3.65208 -0.417392 0.0978444
thorax -2.67332 -0.268928 2.22689
lowerneck -1.19 4.02446 1.56697
upperneck 12.9312 5.8134 -6.42341
head 4.29179 2.5031 -1.9899
rclavicle -2.5842e-015 9.54166e-015
rhumerus -20.2971 -20.4728 -23.5907
rradius 138.1
rwrist -7.08891
rhand -28.501 -35.1808
rfingers 7.12502
rthumb -1.86973 -65.1523
lclavicle -2.5842e-015 9.54166e-015
lhumerus -12.0111 -3.25117 47.5431
lradius 144.675
lwrist -26.578
lhand -50.8021 -77.6234
lfingers 7.12502
lthumb -23.3587 -49.0208
rfemur -20.5363 1.03309 18.3865
rtibia 43.5439
rfoot -28.8332 -10.7205
rtoes -5.00753
lfemur -38.3287 -8.0287 -6.40351
ltibia 43.1417
lfoot -6.87382 16.0795
ltoes -6.96215
341
root 10.0813 15.3296 -1.47404 171.875 -87.0203 -164.022
lowerback 11.3228 0.068547 -3.7586
upperback 3.53946 -0.458508 0.0205968
thorax -2.621 -0.285632 2.2028
lowerneck -1.57146 4.18033 1.74098
upperneck 13.3903 6.0604 -6.64493
head 4.51791 2.59858 -2.06474
rclavicle 5.96354e-015 -7.55382e-015
rhumerus -20.4152 -20.4699 -23.2853
rradius 137.879
rwrist -6.48673
rhand -28.2214 -34.7574
rfingers 7.12502
rthumb -1.59972 -64.7311
lclavicle 5.96354e-015 -7.55382e-015
lhumerus -12.2899 -3.24685 47.3639
lradius 144.261
lwrist -26.7497
lhand -50.4928 -78.4132
lfingers 7.12502
lthumb -23.062 -49.7732
rfemur -20.5101 1.1026 18.2985
rtibia 43.523
rfoot -28.7859 -10.7938
rtoes -5.21032
lfemur -37.8916 -7.89581 -6.50938
ltibia 42.6412
lfoot -6.45154 16.2443
ltoes -7.72957
342
root 10.0747 15.3414 -1.50581 175.509 -86.8223 -167.923
lowerback 11.056 0.0495421 -3.79844
upperback 3.41633 -0.473602 -0.0266061
thorax -2.60208 -0.288675 2.17621
lowerneck -1.23628 4.31463 1.86473
upperneck 13.5723 6.25345 -6.86081
head 4.53575 2.68327 -2.14905
rclavicle 1.09332e-015 -3.97569e-016
rhumerus -20.7957 -20.3365 -22.8174
rradius 137.73
rwrist -5.76027
rhand -28.0713 -34.6216
rfingers 7.12502
rthumb -1.45474 -64.5964
lclavicle 1.09332e-015 -3.97569e-016
lhumerus -12.7513 -3.33989 47.2059
lradius 143.898
lwrist -26.7814
lhand -50.172 -79.054
lfingers 7.12502
lthumb -22.7542 -50.3759
rfemur -20.2278 1.12947 18.2703
rtibia 43.5266
rfoot -28.7926 -10.9042
rtoes -5.33193
lfemur -37.2268 -7.8071 -6.61368
ltibia 42.1529
lfoot -6.01892 16.3797
ltoes -8.3292
343
root 10.073 15.3514 -1.53641 180.349 -86.6751 -172.925
lowerback 10.6127 -0.00968017 -3.98366
upperback 3.4174 -0.54934 -0.0593982
thorax -2.35104 -0.329926 2.25147
lowerneck -1.34221 4.55792 1.84299
upperneck 13.8643 6.59125 -6.84975
head 4.65796 2.83494 -2.12177
rclavicle 7.15625e-015 7.95139e-016
rhumerus -20.8572 -20.374 -22.4223
rradius 137.606
rwrist -5.21955
rhand -28.1789 -34.5254
rfingers 7.12502
rthumb -1.55871 -64.4994
lclavicle 7.15625e-015 7.95139e-016
lhumerus -13.0253 -3.25128 47.0653
lradius 143.308
lwrist -27.4238
lhand -50.0787 -79.5936
lfingers 7.12502
lthumb -22.6646 -50.9045
rfemur -20.0745 1.03245 18.1208
rtibia 43.5736
rfoot -28.8709 -10.7872
rtoes -4.47101
lfemur -36.7422 -7.72368 -6.82004
ltibia 41.6913
lfoot -5.62888 16.4976
ltoes -9.3646
344
root 10.0788 15.3583 -1.56848 184.481 -86.5382 -176.995
lowerback 10.0365 -0.0465233 -4.09295
upperback 3.42786 -0.577831 -0.0717709
thorax -2.02051 -0.349396 2.29721
lowerneck -1.41097 4.65144 1.99384
upperneck 13.7672 6.749 -7.19159
head 4.66318 2.90274 -2.24228
rclavicle -5.86415e-015 1.59028e-015
rhumerus -20.592 -20.6638 -21.9274
rradius 137.448
rwrist -5.11572
rhand -27.6095 -34.5052
rfingers 7.12502
rthumb -1.00872 -64.4826
lclavicle -5.86415e-015 1.59028e-015
lhumerus -12.914 -3.03514 46.8398
lradius 142.836
lwrist -27.3699
lhand -49.7834 -80.0715
lfingers 7.12502
lthumb -22.3812 -51.348
rfemur -20.2514 0.943776 18.0094
rtibia 43.6585
rfoot -28.8411 -10.6771
rtoes -3.5747
lfemur -36.5884 -7.6042 -6.93432
ltibia 41.2754
lfoot -5.32763 16.5688
ltoes -10.629
345
root 10.0853 15.3646 -1.59861 186.961 -86.2869 -179.372
lowerback 9.9936 -0.210623 -4.17519
upperback 3.01708 -0.796838 -0.123136
thorax -2.40779 -0.437051 2.31797
lowerneck -1.65566 4.99128 2.15017
upperneck 14.3409 7.22498 -7.22085
head 4.91086 3.11445 -2.24311
rclavicle -8.84592e-015 -2.38542e-015
rhumerus -20.1486 -20.3507 -21.7341
rradius 137.347
rwrist -5.30253
rhand -26.8909 -34.4674
rfingers 7.12502
rthumb -0.314697 -64.4469
lclavicle -8.84592e-015 -2.38542e-015
lhumerus -13.6273 -2.71953 46.1368
lradius 142.748
lwrist -26.61
lhand -49.2569 -80.6958
lfingers 7.12502
lthumb -21.8757 -51.9124
rfemur -20.5304 0.942037 17.988
rtibia 43.7505
rfoot -28.7629 -10.6298
rtoes -3.38732
lfemur -36.4913 -7.40074 -6.94637
ltibia 40.9219
lfoot -5.09734 16.6143
ltoes -10.9858
346
root 10.0894 15.3738 -1.62622 189.311 -85.8631 -181.598
lowerback 9.54848 -0.350504 -4.3091
upperback 2.86034 -0.9697 -0.159274
thorax -2.31112 -0.518909 2.37008
lowerneck -1.91946 5.33434 2.23748
upperneck 14.5351 7.7088 -7.32732
head 5.04761 3.33605 -2.25476
rclavicle 1.41137e-014 5.96354e-015
rhumerus -19.4028 -20.3394 -21.6245
rradius 137.242
rwrist -5.57231
rhand -26.8837 -34.399
rfingers 7.12502
rthumb -0.307789 -64.3785
lclavicle 1.41137e-014 5.96354e-015
lhumerus -14.2591 -2.07378 45.4535
lradius 142.458
lwrist -26.5543
lhand -49.438 -81.8524
lfingers 7.12502
lthumb -22.0496 -53.0895
rfemur -20.8016 1.02123 17.9041
rtibia 43.8012
rfoot -28.7371 -10.4255
rtoes -2.94602
lfemur -36.3739 -7.11455 -7.00957
ltibia 40.6331
lfoot -4.88955 16.6716
ltoes -10.203
347
root 10.0861 15.387 -1.65569 191.027 -85.4312 -183.438
lowerback 9.08564 -0.170286 -4.15349
upperback 2.50354 -0.687112 -0.155589
thorax -2.44799 -0.363795 2.25179
lowerneck -0.206173 5.27129 1.78921
upperneck 13.9765 7.56644 -7.27013
head 4.5608 3.29087 -2.22432
rclavicle -3.97569e-015 8.34896e-015
rhumerus -19.79 -20.1232 -20.1371
rradius 137.336
rwrist -6.33398
rhand -26.6454 -34.4584
rfingers 7.12502
rthumb -0.0776319 -64.4382
lclavicle -3.97569e-015 8.34896e-015
lhumerus -14.8441 -2.55929 45.3965
lradius 142.046
lwrist -27.1698
lhand -50.7773 -78.7868
lfingers 7.12502
lthumb -23.335 -50.1812
rfemur -20.6938 1.11511 17.8138
rtibia 43.7671
rfoot -28.732 -10.1777
rtoes -2.28164
lfemur -35.9397 -6.9779 -7.09723
ltibia 40.3927
lfoot -4.76747 16.7891
ltoes -9.07241
348
root 10.0792 15.3969 -1.68637 191.846 -84.9666 -184.571
lowerback 8.87166 -0.209022 -4.16724
upperback 2.41569 -0.728975 -0.191141
thorax -2.41806 -0.382346 2.22514
lowerneck 0.145281 5.53106 1.93168
upperneck 14.0272 7.92786 -7.52157
head 4.55015 3.46232 -2.31752
rclavicle -6.95746e-015 2.54444e-014
rhumerus -19.124 -19.8963 -19.6015
rradius 137.212
rwrist -7.0074
rhand -26.3311 -34.3847
rfingers 7.12502
rthumb 0.225926 -64.3643
lclavicle -6.95746e-015 2.54444e-014
lhumerus -15.4986 -2.26613 44.8059
lradius 141.85
lwrist -27.1127
lhand -51.7028 -76.239
lfingers 7.12502
lthumb -24.2226 -47.7488
rfemur -20.3588 1.22488 17.7521
rtibia 43.6754
rfoot -28.696 -9.85938
rtoes -1.63834
lfemur -35.2867 -6.94524 -7.13705
ltibia 40.1785
lfoot -4.83915 17.0414
ltoes -7.78623
349
root 10.0755 15.4012 -1.71624 191.822 -84.3718 -184.764
lowerback 8.67258 -0.258989 -4.16542
upperback 2.28267 -0.785092 -0.226859
thorax -2.44236 -0.405743 2.19142
lowerneck 0.195534 5.85748 2.21794
upperneck 14.2924 8.4009 -7.84905
head 4.67209 3.67806 -2.44145
rclavicle -3.12092e-014 -2.46493e-014
rhumerus -18.0613 -19.5973 -19.3198
rradius 136.931
rwrist -7.67023
rhand -26.2076 -34.6141
rfingers 7.12502
rthumb 0.345242 -64.5936
lclavicle -3.12092e-014 -2.46493e-014
lhumerus -16.2314 -1.95095 44.0772
lradius 141.876
lwrist -26.0976
lhand -51.9746 -75.0977
lfingers 7.12502
lthumb -24.4832 -46.6426
rfemur -20.1763 1.47054 17.7271
rtibia 43.5884
rfoot -28.6179 -9.4203
rtoes -0.674146
lfemur -34.7548 -6.79701 -7.10867
ltibia 40.009
lfoot -4.63111 17.4371
ltoes -7.57767
350
root 10.0763 15.4037 -1.74858 191.734 -83.744 -184.861
lowerback 8.31972 -0.22827 -4.10133
upperback 2.28828 -0.721449 -0.274339
thorax -2.24682 -0.377885 2.09527
lowerneck 0.0289736 6.09363 2.15843
upperneck 14.4467 8.73515 -7.88341
head 4.76507 3.82574 -2.41909
rclavicle -2.78299e-015 -1.59028e-015
rhumerus -16.977 -19.6605 -18.9193
rradius 136.718
rwrist -8.22262
rhand -24.9924 -35.0373
rfingers 7.12502
rthumb 1.51887 -65.0116
lclavicle -2.78299e-015 -1.59028e-015
lhumerus -16.5673 -1.66813 43.4608
lradius 141.978
lwrist -24.4033
lhand -51.4115 -75.6528
lfingers 7.12502
lthumb -23.9432 -47.1257
rfemur -20.0427 1.86294 17.729
rtibia 43.5388
rfoot -28.564 -9.04348
rtoes 0.332683
lfemur -34.2782 -6.59223 -7.06581
ltibia 39.9084
lfoot -3.9819 17.8019
ltoes -8.35649
351
root 10.0833 15.4014 -1.78067 191.63 -83.0462 -184.846
lowerback 7.90939 -0.231856 -4.00194
upperback 2.30175 -0.698591 -0.347065
thorax -2.00915 -0.371094 1.95711
lowerneck -0.15472 6.37842 2.06319
upperneck 14.4855 9.1284 -7.87359
head 4.82533 4.0075 -2.37358
rclavicle 1.21259e-014 6.36111e-015
rhumerus -15.7005 -19.7251 -18.6032
rradius 136.531
rwrist -8.8428
rhand -22.1892 -34.6944
rfingers 7.12502
rthumb 4.22608 -64.6322
lclavicle 1.21259e-014 6.36111e-015
lhumerus -17.0304 -1.26366 42.7349
lradius 142.025
lwrist -22.9981
lhand -50.9404 -77.7967
lfingers 7.12502
lthumb -23.4914 -49.211
rfemur -20.1011 2.3034 17.7239
rtibia 43.5189
rfoot -28.4232 -8.71326
rtoes 0.810644
lfemur -33.9634 -6.21871 -7.01358
ltibia 39.914
lfoot -3.32421 17.9139
ltoes -8.88992
352
root 10.0923 15.4012 -1.81181 191.777 -82.256 -185.074
lowerback 7.7297 -0.243006 -3.96324
upperback 2.06928 -0.702769 -0.41577
thorax -2.15093 -0.364322 1.86426
lowerneck 0.100534 6.72112 2.30998
upperneck 14.6154 9.61462 -8.20021
head 4.87576 4.23523 -2.49576
rclavicle 1.2921e-015 -2.62396e-014
rhumerus -14.3744 -19.3806 -18.1462
rradius 136.349
rwrist -9.5579
rhand -20.6943 -34.4538
rfingers 7.12502
rthumb 5.66947 -64.358
lclavicle 1.2921e-015 -2.62396e-014
lhumerus -18.0023 -0.975325 41.8565
lradius 142.622
lwrist -20.5941
lhand -48.0848 -63.9708
lfingers 7.12502
lthumb -20.7498 -35.0602
rfemur -20.1985 2.78764 17.6423
rtibia 43.4876
rfoot -28.1934 -8.36747
rtoes 0.982043
lfemur -33.6916 -5.76086 -7.02099
ltibia 40.0434
lfoot -2.7267 18.0132
ltoes -9.61835
353
root 10.0993 15.411 -1.84357 192.212 -81.4529 -185.711
lowerback 7.62614 -0.215658 -3.98298
upperback 1.89625 -0.664374 -0.459397
thorax -2.27493 -0.338529 1.82664
lowerneck 0.229564 7.05719 2.43179
upperneck 14.8769 10.1055 -8.52102
head 4.985 4.44967 -2.59007
rclavicle 1.39149e-015 6.36111e-015
rhumerus -13.0407 -19.0528 -17.4031
rradius 136.275
rwrist -10.074
rhand -22.0906 -35.1101
rfingers 7.12502
rthumb 4.3213 -65.046
lclavicle 1.39149e-015 6.36111e-015
lhumerus -19.0406 -0.779101 41.1769
lradius 142.922
lwrist -19.6288
lhand -48.2242 -66.071
lfingers 7.12502
lthumb -20.8838 -37.175
rfemur -20.0945 3.28189 17.5006
rtibia 43.4131
rfoot -28.0209 -7.93726
rtoes 1.55857
lfemur -33.3143 -5.49887 -7.01644
ltibia 40.2729
lfoot -2.60257 18.2229
ltoes -9.55287
